<?xml version="1.0" encoding="UTF-8" standalone="no"?>
<!-- Created with Inkscape (http://www.inkscape.org/) -->

<svg
   version="1.1"
   id="svg1"
   width="300"
   height="300"
   viewBox="0 0 300 300"
   xmlns="http://www.w3.org/2000/svg"
   xmlns:svg="http://www.w3.org/2000/svg">
  <defs
     id="defs1" />
  <g
     id="g1">
    <path
       style="fill:#000000;stroke-width:0.209084"
       d="m 189.73468,67.760295 c -0.0644,-0.06455 -0.23309,-8.3e-5 -0.37493,0.142761 -0.20494,0.20657 -0.18095,0.230571 0.11704,0.117106 0.2062,-0.07862 0.32224,-0.19548 0.25789,-0.259867 z"
       id="path5" />
    <path
       style="fill:#000000;stroke-width:0.209084"
       d="m 188.99735,68.138096 c 0,-0.114955 -0.0414,-0.209053 -0.0922,-0.209053 -0.0507,0 -0.15036,0.0941 -0.22143,0.209053 -0.0711,0.115036 -0.0297,0.209134 0.0922,0.209134 0.12177,0 0.22143,-0.0941 0.22143,-0.209134 z"
       id="path4" />
    <path
       style="fill:#000000;stroke-width:0.209084"
       d="m 88.530899,76.712962 c 0.07325,-0.118507 -0.01067,-0.153602 -0.196754,-0.08196 -0.362217,0.139043 -0.428475,0.288916 -0.127725,0.288916 0.108201,0 0.254224,-0.09302 0.324479,-0.206737 z"
       id="path3" />
    <path
       style="fill:#000000;stroke-width:0.209084"
       d="m 70.446594,193.68082 c 0,-0.17926 -0.09562,-0.26682 -0.212496,-0.19465 -0.116865,0.072 -0.158361,0.21899 -0.09219,0.32599 0.179233,0.28999 0.30469,0.23595 0.30469,-0.13134 z"
       id="path2" />
    <g
       id="g9">
      <path
         d="m 190.50218,15.848269 c -0.36355,0.02317 -0.71439,0.232556 -1.27085,0.610109 -0.30123,0.204418 -1.15919,0.688234 -1.90666,1.075634 -0.74747,0.387401 -2.72332,1.547286 -4.39078,2.577154 -4.12978,2.550754 -3.96208,2.44929 -5.57216,3.369502 -0.78759,0.45005 -1.47978,0.888927 -1.53792,0.975164 -0.0581,0.08624 -0.85788,0.5463 -1.77722,1.022585 -0.91933,0.476202 -2.56528,1.41909 -3.65774,2.095324 -1.09247,0.676151 -2.36266,1.420331 -2.82264,1.65388 -1.65889,0.842252 -3.33498,1.871872 -3.40906,2.094083 -0.0416,0.12472 -0.18559,0.228666 -0.31975,0.231149 -0.22767,0.0083 -2.86282,1.606459 -3.42334,2.081421 -0.13889,0.117767 -0.33862,0.214017 -0.44348,0.214017 -0.10484,0 -1.02591,0.516342 -2.04714,1.147471 -1.02124,0.631212 -2.09208,1.265487 -2.37957,1.409738 -0.28749,0.144169 -1.51064,0.865921 -2.71809,1.603645 -1.20746,0.737725 -2.47765,1.494734 -2.82264,1.682019 -1.19995,0.651573 -3.76419,2.171795 -3.86806,2.293452 -0.10621,0.124306 -0.22865,0.197715 -2.34852,1.401463 -0.65924,0.374407 -1.51479,0.921701 -1.90136,1.216575 -0.38659,0.294875 -0.78086,0.536204 -0.87595,0.536204 -0.0951,0 -0.32157,0.127781 -0.50312,0.284198 -0.31204,0.268805 -1.18159,0.764125 -4.09346,2.331356 -0.68998,0.371346 -1.84972,1.071829 -2.57721,1.556307 -0.72748,0.484479 -1.62132,1.017207 -1.98631,1.183885 -0.36498,0.166596 -0.91616,0.464368 -1.22468,0.661916 -0.30855,0.197632 -1.81396,1.101292 -3.34536,2.00793 -1.53142,0.906638 -3.13505,1.871044 -3.56382,2.143159 -0.42877,0.272033 -0.83554,0.494493 -0.90412,0.494493 -0.0685,0 -0.77922,0.423401 -1.57916,0.9409 -0.79994,0.517501 -1.50074,0.940902 -1.5571,0.940902 -0.0564,0 -0.45332,0.221301 -0.88208,0.492093 -1.0766,0.679709 -8.34964,4.966194 -9.24748,5.45001 -0.40249,0.216914 -1.13636,0.662413 -1.63104,0.989895 -0.49466,0.327565 -1.20032,0.749643 -1.56813,0.938005 -0.36779,0.188445 -0.71594,0.40031 -0.77344,0.470491 -0.0575,0.07035 -0.52794,0.355704 -1.04542,0.634606 -0.51748,0.278902 -0.98792,0.561197 -1.04542,0.62724 -0.10578,0.121575 -0.19562,0.172473 -1.88176,1.069097 -0.51748,0.275178 -1.12905,0.654385 -1.35905,0.842913 -0.456131,0.373746 -1.785153,1.10849 -2.613549,1.444746 -0.580936,0.235866 -1.039162,0.508561 -2.021005,1.203086 -0.64563,0.456671 -4.456168,2.783226 -6.760528,4.127749 -0.632478,0.369028 -1.620404,0.965478 -2.195389,1.325153 -0.574976,0.359759 -1.609944,0.94968 -2.299924,1.310847 -0.68998,0.361241 -1.395635,0.780174 -1.568132,0.931133 -0.172489,0.150867 -0.839578,0.550766 -1.482361,0.888598 -1.653251,0.868819 -4.020534,2.259519 -5.731039,3.366599 -0.804976,0.52097 -1.792901,1.12562 -2.195389,1.34354 -0.402488,0.2179 -1.207033,0.708 -1.787828,1.08945 -0.580803,0.38144 -1.396282,0.85607 -1.812342,1.05444 -0.732486,0.34926 -0.758614,0.40098 -0.825715,1.63676 -0.09255,1.70436 -0.06141,103.834125 0.03186,104.302395 0.04006,0.20118 0.174749,0.36704 0.299336,0.3691 0.124578,0 0.08551,0.0943 -0.08699,0.20583 -0.172489,0.11148 -0.231406,0.20376 -0.131084,0.20582 0.10033,0 0.08766,0.12091 -0.02814,0.26459 -0.304782,0.37829 0.06679,1.20225 0.542312,1.20225 0.218196,0 0.621305,0.17538 0.895556,0.38964 0.274243,0.21418 0.874966,0.59306 1.334947,0.84201 2.666958,1.44341 4.950959,2.77975 9.513332,5.56603 0.977473,0.59696 1.91835,1.14781 2.090847,1.22427 0.172496,0.0762 0.737021,0.41555 1.254504,0.75346 0.517484,0.33798 1.55245,0.96241 2.299924,1.38763 0.747474,0.42523 2.472545,1.44086 3.833355,2.25704 1.360777,0.81619 2.725055,1.62608 3.031714,1.79971 0.306644,0.17363 1.247835,0.71464 2.091659,1.20226 0.843848,0.48754 1.57549,0.88652 1.625717,0.88652 0.05023,0 0.677036,0.36159 1.392937,0.80369 0.715902,0.4421 3.136185,1.87079 5.378605,3.17469 2.24243,1.30388 5.34733,3.13975 6.89978,4.07999 3.34738,2.02721 16.18296,9.61268 21.22206,12.54132 1.03496,0.6015 2.81473,1.64619 3.95503,2.32159 1.14029,0.67541 2.41047,1.41611 2.82263,1.6461 0.41216,0.22999 0.98458,0.56923 1.27208,0.75387 0.28749,0.18463 2.21629,1.32515 4.28623,2.53436 2.06993,1.20921 4.37508,2.57095 5.12256,3.02638 0.74747,0.45543 1.97062,1.15666 2.71809,1.55796 0.74747,0.40131 1.97062,1.10758 2.7181,1.56971 0.74747,0.46222 2.29992,1.37068 3.44988,2.01902 1.14996,0.64827 2.7965,1.64453 3.65899,2.21376 0.86246,0.56922 1.6165,1.04195 1.67553,1.05031 0.059,0.008 0.60128,-0.31747 1.20507,-0.72408 1.36098,-0.91648 5.85225,-3.65162 5.99648,-3.65162 0.0583,0 0.74291,-0.39096 1.52116,-0.86899 0.77825,-0.47801 1.93249,-1.15227 2.56497,-1.49829 0.63248,-0.34602 1.76153,-1.00247 2.50901,-1.45873 0.74747,-0.45617 3.38194,-2.00396 5.85436,-3.43968 2.47242,-1.43564 4.8703,-2.85067 5.32878,-3.1444 1.02552,-0.65686 6.16631,-3.66941 8.99348,-5.27041 1.15004,-0.65116 3.25033,-1.90581 4.66768,-2.78787 1.41736,-0.88214 2.64974,-1.60373 2.73812,-1.60373 0.0884,0 1.04552,-0.54746 2.12719,-1.21649 2.49795,-1.54513 8.3299,-5.01088 11.58453,-6.88465 1.37994,-0.7945 3.35584,-1.94338 4.39076,-2.55315 1.035,-0.60971 2.30521,-1.34478 2.8227,-1.63386 0.51742,-0.28909 1.19059,-0.70032 1.49582,-0.91392 0.30521,-0.21352 0.61019,-0.3884 0.67747,-0.3884 0.067,0 0.78283,-0.4234 1.59015,-0.94082 0.80742,-0.51749 1.52884,-0.94089 1.60332,-0.94089 0.0745,0 1.03798,-0.54821 2.141,-1.21815 1.10312,-0.66995 2.47594,-1.49184 3.05096,-1.82669 0.57502,-0.33476 1.20483,-0.70429 1.39989,-0.82074 0.19507,-0.11651 1.37117,-0.81327 2.61357,-1.54902 1.24231,-0.73565 2.58932,-1.54546 2.99328,-1.79962 0.40403,-0.25416 0.94503,-0.52925 1.20225,-0.61093 0.25722,-0.082 0.46801,-0.2362 0.46801,-0.34346 0,-0.10717 0.11843,-0.19473 0.26342,-0.19473 0.14492,0 0.89473,-0.42341 1.66613,-0.9409 0.77133,-0.51751 1.46404,-0.94091 1.5391,-0.94091 0.0753,0 1.27765,-0.69303 2.67241,-1.54032 1.39468,-0.84731 3.68854,-2.22063 5.0972,-3.05179 l 2.56127,-1.51137 0.0133,-19.89523 c 0.0364,-54.68996 -0.0265,-87.420705 -0.16908,-87.552385 -0.0869,-0.0803 -0.81668,-0.5103 -1.62161,-0.95554 -2.62598,-1.45254 -3.62332,-2.02449 -7.83085,-4.49124 -2.28286,-1.338398 -4.79488,-2.849102 -5.58243,-3.357167 -0.78746,-0.508064 -1.61051,-0.991634 -1.82908,-1.074476 -0.39833,-0.150876 -7.25717,-4.212499 -9.22049,-5.460275 -0.57502,-0.365387 -1.91954,-1.176107 -2.98764,-1.801277 -1.0681,-0.625171 -3.23212,-1.895872 -4.80895,-2.823862 -1.57684,-0.928073 -3.80764,-2.232458 -4.95759,-2.899008 -1.14995,-0.666552 -2.23196,-1.325323 -2.40443,-1.46403 -0.38616,-0.31035 -2.6144,-1.66017 -6.06343,-3.672816 -3.92797,-2.292128 -3.61439,-2.060316 -3.26208,-2.412627 0.16767,-0.167672 0.40561,-0.30464 0.52884,-0.30464 0.12323,0 0.22419,-0.08491 0.22419,-0.188694 0,-0.103699 0.28255,-0.287096 0.62807,-0.407511 0.34553,-0.120499 1.12173,-0.537032 1.72497,-0.925756 1.05098,-0.677393 3.05104,-1.898852 5.13602,-3.136283 0.53836,-0.319537 1.19059,-0.669861 1.4493,-0.778773 0.2587,-0.108913 0.47041,-0.2842 0.47041,-0.389553 0,-0.105437 0.22775,-0.248611 0.50641,-0.318545 0.27865,-0.06952 0.9289,-0.44947 1.44483,-0.843326 0.51584,-0.393774 0.97996,-0.673834 1.03152,-0.622357 0.0513,0.05131 0.21311,-0.04965 0.35852,-0.224943 0.1455,-0.175286 0.3706,-0.319371 0.50028,-0.319371 0.12969,-4.14e-4 0.73475,-0.379208 1.34477,-0.841672 0.60994,-0.462381 1.19109,-0.790194 1.29165,-0.728125 0.10047,0.06207 0.24323,-0.07779 0.3173,-0.311178 0.0745,-0.233301 0.22238,-0.369855 0.32996,-0.303399 0.10751,0.06621 0.25201,-0.02648 0.32095,-0.206239 0.0687,-0.179754 0.34287,-0.326654 0.60845,-0.326654 0.26566,0 0.52197,-0.117272 0.56972,-0.26053 0.048,-0.143257 0.2204,-0.261357 0.38343,-0.261357 0.41463,0 3.3282,-1.580306 3.3282,-1.803759 0,-0.100802 0.22867,-0.183397 0.5084,-0.183397 0.325,0 0.55681,-0.150954 0.64155,-0.418187 0.14657,-0.461803 0.5127,-0.568232 0.53952,-0.156748 0.009,0.143754 0.14624,-0.02069 0.30423,-0.365966 0.1579,-0.344945 0.29835,-0.533141 0.31159,-0.418104 0.0133,0.114953 0.0969,0.02317 0.1858,-0.204584 0.18281,-0.467927 0.0273,-0.655213 -1.03153,-1.248438 -0.40039,-0.224198 -0.8218,-0.485472 -0.93684,-0.580232 -0.21816,-0.179921 -3.23551,-2.009088 -4.48553,-2.719336 -0.39691,-0.225605 -0.88834,-0.442602 -1.09235,-0.481913 -0.20401,-0.0389 -0.49093,-0.17537 -0.6375,-0.302572 -0.14648,-0.127285 -0.92484,-0.717449 -1.72985,-1.311667 -0.80493,-0.594218 -1.49507,-1.154505 -1.53339,-1.245128 -0.038,-0.09062 -0.20765,-0.165024 -0.37614,-0.165024 -0.16842,0 -0.67781,-0.179507 -1.13199,-0.398904 -0.45411,-0.219398 -0.87834,-0.313578 -0.9429,-0.209136 -0.0645,0.104444 -0.26127,0.189935 -0.43697,0.189935 -0.17562,0 -0.71074,0.264336 -1.18951,0.587598 -2.4934,1.683427 -3.50581,2.318363 -3.89304,2.441262 -0.23521,0.07448 -0.42754,0.223122 -0.42754,0.330379 0,0.107175 -0.0974,0.195149 -0.21642,0.195149 -0.11901,0 -1.31862,0.670358 -2.66587,1.489767 -1.34718,0.819326 -3.12056,1.842078 -3.94072,2.272513 -0.82015,0.430436 -2.00594,1.124381 -2.63516,1.541989 -0.62915,0.417691 -1.20384,0.75916 -1.277,0.75916 -0.0728,0 -0.79342,0.423401 -1.60075,0.940901 -0.8074,0.5175 -1.54124,0.940901 -1.63062,0.940901 -0.0894,0 -0.48845,0.278323 -0.88661,0.618633 -0.39816,0.340393 -0.85598,0.622688 -1.01762,0.627323 -0.16163,0.0083 -0.58503,0.228418 -0.9409,0.496975 -0.35579,0.268474 -1.49366,0.983771 -2.52857,1.589741 -1.035,0.605971 -2.02292,1.21939 -2.19539,1.363144 -0.17255,0.143672 -0.83116,0.53008 -1.46365,0.85839 -0.63248,0.32831 -1.38518,0.754111 -1.67268,0.946611 -0.28749,0.192418 -0.85201,0.537363 -1.2545,0.766443 -0.40249,0.229163 -1.39042,0.82065 -2.19538,1.31415 -0.80498,0.493499 -1.94905,1.163857 -2.5421,1.489767 -1.05735,0.58106 -6.16068,3.575905 -8.01666,4.70434 -3.13935,1.9087 -6.37355,3.832959 -6.44199,3.832959 -0.0438,0 -0.37156,0.207562 -0.72813,0.461471 -0.35656,0.253908 -0.93561,0.613419 -1.28677,0.798802 -0.35116,0.1853 -1.01463,0.55797 -1.47461,0.828099 -0.45998,0.270212 -1.44791,0.832982 -2.19539,1.250838 -1.29698,0.725145 -3.1231,1.868478 -3.34576,2.09491 -0.0575,0.05876 -0.38688,0.258543 -0.73179,0.44434 -1.30038,0.7004 -6.27815,3.61654 -6.47996,3.796212 -0.11577,0.103037 -0.65485,0.438216 -1.19815,0.744842 -1.52702,0.861618 -5.06326,3.024638 -5.18015,3.168561 -0.0576,0.07036 -0.43385,0.292222 -0.83633,0.492005 -0.4025,0.199784 -2.14313,1.208879 -3.86807,2.242395 -1.72494,1.033504 -3.59621,2.135374 -4.15841,2.448544 -0.56221,0.31316 -1.17378,0.66465 -1.35905,0.78126 -0.18527,0.11652 -1.18369,0.71455 -2.21865,1.32879 -1.03497,0.61417 -2.04642,1.26243 -2.24765,1.44069 -0.20125,0.17826 -0.3659,0.25151 -0.3659,0.16255 0,-0.089 -0.3231,0.0844 -0.71792,0.38549 -0.39481,0.30116 -0.75911,0.54763 -0.80978,0.54763 -0.14623,0 -4.46872,2.47122 -5.6992,3.25835 -0.61397,0.39278 -1.17693,0.71422 -1.25082,0.71422 -0.2569,0 -3.02191,1.93858 -3.02191,2.11866 0,0.0997 -0.15174,0.18133 -0.33732,0.18133 -0.32477,0 -1.9568,0.80435 -2.1717,1.07034 -0.0576,0.0712 -0.57498,0.37912 -1.14996,0.68484 -0.57498,0.30563 -1.32768,0.73508 -1.67267,0.9539 -0.34499,0.2189 -1.09769,0.64867 -1.67268,0.95521 -0.57498,0.30654 -1.65699,0.94006 -2.40447,1.408 -0.74748,0.46792 -1.59427,0.99776 -1.88176,1.17734 -0.28749,0.17959 -0.9461,0.54886 -1.46359,0.820395 -0.51748,0.27154 -1.08536,0.65008 -1.26186,0.84126 -0.17649,0.19118 -0.43321,0.37019 -0.57049,0.39817 -0.13728,0.0281 -0.91104,0.47479 -1.71963,0.99311 -0.80861,0.51834 -1.54518,0.94256 -1.63634,0.94256 -0.0912,0 -0.58132,0.30572 -1.08951,0.67946 -0.5082,0.37375 -0.973727,0.66796 -1.034407,0.65381 -0.156227,-0.0364 -0.717448,0.18091 -0.842044,0.32591 -0.05752,0.067 -0.456911,0.35628 -0.887372,0.64272 l -0.78244,0.52072 -0.01754,1.98625 c -0.01796,2.04848 0.02094,11.24546 0.04859,11.4752 0.0086,0.0712 0.0033,0.17603 -0.01109,0.23355 -0.083,0.32641 -0.02864,58.8163 0.0547,58.89964 0.12357,0.12365 1.755809,-0.76421 4.049373,-2.20267 0.94745,-0.59429 1.81021,-1.0806 1.91689,-1.0806 0.10665,0 0.22503,-0.0703 0.26338,-0.15682 0.0383,-0.0862 0.77549,-0.52313 1.63797,-0.97103 0.86247,-0.44799 1.80334,-0.97789 2.09084,-1.17776 0.28749,-0.19987 0.95614,-0.56666 1.48604,-0.8151 0.5299,-0.24846 1.14148,-0.61715 1.35905,-0.81917 0.21757,-0.20202 0.69625,-0.5444 1.06339,-0.76081 0.51551,-0.30382 0.7004,-0.58711 0.81224,-1.24389 0.0797,-0.46785 0.1555,-12.94784 0.16867,-27.73304 0.0216,-24.24569 0.0565,-26.91455 0.35567,-27.21364 0.34106,-0.34105 2.35031,-1.65454 2.90922,-1.90174 0.1725,-0.0762 0.49971,-0.25697 0.7269,-0.40148 1.7726,-1.12719 2.82824,-1.76577 3.45478,-2.09002 0.40249,-0.20823 0.91998,-0.49383 1.14996,-0.6346 0.22999,-0.1407 1.31201,-0.77348 2.40447,-1.40602 1.09247,-0.63246 2.14856,-1.24406 2.3469,-1.35901 0.19832,-0.11504 1.51554,-0.90747 2.92718,-1.7613 1.41161,-0.85376 3.03703,-1.83281 3.61201,-2.17536 0.57498,-0.34262 1.37473,-0.83198 1.77722,-1.08747 0.40248,-0.25556 1.90788,-1.14779 3.34534,-1.982675 1.43746,-0.83481 3.24758,-1.92824 4.02243,-2.43017 0.77484,-0.50186 1.45013,-0.91267 1.50075,-0.91267 0.11518,0 2.69778,-1.51502 2.84019,-1.66613 0.0576,-0.0612 0.57499,-0.34958 1.14997,-0.64115 1.18855,-0.60274 5.06684,-2.87261 5.54072,-3.24288 0.1725,-0.13482 0.97224,-0.60108 1.77723,-1.0364 0.80497,-0.43541 2.00114,-1.15567 2.65806,-1.60042 0.65692,-0.44476 2.25641,-1.43167 3.55443,-2.19331 4.24554,-2.49125 3.88968,-2.35097 4.76442,-1.88222 1.40015,0.75039 8.64111,5.10647 12.33598,7.42128 0.74747,0.46833 1.9706,1.19754 2.71809,1.62003 0.74747,0.42249 2.11175,1.21881 3.03171,1.76983 0.91997,0.55102 3.74261,2.22343 6.27254,3.71659 2.52987,1.493155 4.92909,2.927475 5.33163,3.187255 0.40247,0.25987 1.90788,1.14672 3.34534,1.97077 1.43746,0.82412 3.08398,1.78638 3.65899,2.13869 0.57494,0.35223 2.94205,1.75576 5.26016,3.11865 2.31811,1.3629 4.52724,2.66613 4.90901,2.8962 0.38169,0.22999 1.5429,0.89703 2.58047,1.48231 l 1.88618,1.06422 0.10461,27.92868 0.10453,27.92869 2.7867,1.68616 c 1.53263,0.92725 3.27325,1.94486 3.86804,2.2615 0.59481,0.31665 1.71736,0.97749 2.49474,1.46809 0.77745,0.49061 1.44557,0.8919 1.4848,0.8919 0.0389,0 1.02349,0.51743 2.18727,1.14997 1.16369,0.63244 2.1924,1.14995 2.286,1.14995 0.0936,0 0.15915,-16.41385 0.14574,-36.47542 l -0.0249,-36.47584 -0.50551,-0.40999 c -0.27799,-0.22544 -1.44648,-0.94918 -2.59643,-1.60853 -3.33126,-1.90994 -6.64706,-3.85671 -13.695,-8.039485 -12.04261,-7.14717 -14.72669,-8.75124 -16.4131,-9.81023 -0.91996,-0.57775 -1.9706,-1.18571 -2.33508,-1.3509 -0.76594,-0.34709 -4.04978,-2.28302 -8.53728,-5.033553 -1.72494,-1.057265 -3.70079,-2.235856 -4.39077,-2.618866 -1.72492,-0.957374 -3.86806,-2.359912 -3.86806,-2.531473 0,-0.0778 0.44691,-0.351235 0.99315,-0.607212 0.54623,-0.255978 1.0402,-0.524948 1.09769,-0.597861 0.0576,-0.07283 0.52795,-0.359427 1.04543,-0.636674 1.39101,-0.745091 2.11001,-1.282452 1.98548,-1.483974 -0.0608,-0.09824 0,-0.246708 0.13436,-0.329965 0.1617,-0.09997 0.18843,-0.06042 0.0788,0.117189 -0.0914,0.147727 -0.0822,0.226763 0.02,0.175617 0.10226,-0.05131 0.4916,-0.213522 0.86533,-0.361 0.37374,-0.147479 0.67953,-0.353221 0.67953,-0.457003 0,-0.103698 0.11776,-0.18861 0.26177,-0.18861 0.27936,0 3.6145,-1.910851 3.98932,-2.285673 0.15841,-0.158402 0.15061,-0.223369 -0.0273,-0.223369 -0.13799,0 -0.25115,-0.105768 -0.25115,-0.234791 0,-0.167341 0.0855,-0.163287 0.29852,0.01324 0.31663,0.262765 1.0568,-0.01821 2.24359,-0.852678 l 0.55573,-0.390794 1.35089,0.784898 c 0.74286,0.431512 3.17427,1.877168 5.40309,3.212587 2.22882,1.335419 5.74588,3.423957 7.81579,4.641111 2.06992,1.217155 4.18544,2.476597 4.70112,2.798949 1.49051,0.931631 1.88883,1.164271 3.66222,2.141089 0.91996,0.506748 2.19017,1.263426 2.82263,1.681196 1.41684,0.93594 8.12962,4.92424 12.72107,7.55808 1.87915,1.07804 4.37247,2.58196 5.54072,3.34253 1.16824,0.76047 2.62101,1.63434 3.22856,1.94138 1.37671,0.69577 3.44415,2.00073 3.64881,2.30314 0.0845,0.12496 0.15468,20.278395 0.15683,44.785685 v 44.55903 l -0.78407,0.52966 c -1.46378,0.98924 -8.58075,5.18792 -11.34279,6.6915 -0.63253,0.34429 -1.87534,1.08499 -2.76179,1.6461 -0.88652,0.5612 -1.82743,1.11834 -2.09085,1.23818 -0.54192,0.24654 -0.82041,0.41066 -5.11649,3.01786 -1.70437,1.03441 -3.32861,2.00262 -3.60951,2.15167 -0.28088,0.14906 -1.2688,0.72622 -2.19537,1.28271 -0.92659,0.55656 -2.62541,1.55299 -3.77537,2.21417 -1.14995,0.66125 -2.33317,1.36877 -2.62912,1.57219 -0.29587,0.20351 -1.33087,0.81022 -2.2999,1.34809 -0.96905,0.53785 -2.37324,1.34807 -3.12073,1.80044 -0.74749,0.45237 -1.59429,0.93759 -1.88181,1.07853 -0.28742,0.14086 -1.39814,0.80327 -2.46815,1.47214 -1.06993,0.66895 -2.10493,1.27575 -2.29991,1.34842 -0.19498,0.0728 -1.15417,0.61731 -2.13165,1.21003 -0.97748,0.59273 -2.43589,1.45824 -3.24081,1.92343 -0.80501,0.46511 -2.40447,1.38996 -3.55444,2.05486 -1.14996,0.66498 -3.45512,2.03052 -5.12257,3.03456 -1.66743,1.00413 -3.78441,2.2237 -4.70438,2.7104 -0.91998,0.48663 -1.95494,1.09451 -2.29994,1.35082 -0.34498,0.2563 -1.14015,0.72555 -1.767,1.04303 -0.62687,0.31747 -1.37958,0.7407 -1.67267,0.9404 -1.53788,1.04799 -4.47868,2.78207 -5.96911,3.5198 -0.34499,0.17073 -0.76838,0.42464 -0.94088,0.56434 -0.1725,0.13969 -0.74032,0.49929 -1.26186,0.79913 l -0.94822,0.54522 -1.14263,-0.71546 c -0.62842,-0.39369 -1.79892,-1.0576 -2.60088,-1.47504 -0.80198,-0.41752 -2.44852,-1.34998 -3.65897,-2.07247 -2.05948,-1.22916 -5.45799,-3.22807 -12.44582,-7.31916 -1.60995,-0.94255 -4.05623,-2.37563 -5.43619,-3.18486 -1.37996,-0.80923 -3.07354,-1.78117 -3.76351,-2.15988 -0.68999,-0.37871 -1.86608,-1.08217 -2.61356,-1.56326 -0.74747,-0.481 -2.67628,-1.61283 -4.28623,-2.51508 -3.48198,-1.95149 -8.14103,-4.68241 -9.66689,-5.6661 -0.60197,-0.38814 -1.12731,-0.70569 -1.16752,-0.70569 -0.13379,0 -5.03533,-2.85341 -6.41503,-3.73448 -0.74748,-0.47736 -1.50018,-0.92947 -1.67268,-1.00504 -0.17249,-0.0753 -0.78406,-0.43879 -1.35905,-0.80691 -1.43289,-0.91732 -5.93378,-3.60181 -7.84065,-4.67661 -0.862473,-0.48614 -1.897439,-1.07879 -2.299928,-1.31705 -0.402488,-0.23818 -2.049028,-1.19473 -3.658979,-2.12553 -1.609943,-0.93072 -3.372795,-1.97673 -3.917464,-2.32441 -0.544663,-0.34768 -2.191202,-1.32863 -3.658971,-2.1799 l -2.668688,-1.5477 0.04047,-35.98292 c 0.05297,-47.31725 0.08035,-53.440675 0.241742,-53.444645 0.07465,0 0.430718,-0.26334 0.791007,-0.58114 0.360272,-0.3178 1.018886,-0.76321 1.46359,-0.9899 0.444678,-0.2266 0.855617,-0.45907 0.91311,-0.51651 0.314969,-0.31498 1.477684,-1.04542 1.664101,-1.04542 0.119663,0 0.21766,-0.10428 0.21766,-0.23156 0,-0.12721 0.138334,-0.17802 0.307504,-0.11314 0.169145,0.0645 0.447774,-0.0224 0.619072,-0.19358 0.271205,-0.27119 0.815809,-0.60456 3.464195,-2.12189 0.287492,-0.16468 1.009956,-0.5981 1.605706,-0.96291 0.59574,-0.36472 1.935555,-1.16824 2.977001,-1.78539 1.154605,-0.68417 1.840522,-1.21459 1.758018,-1.359 -0.0744,-0.13035 -0.05942,-0.16825 0.03344,-0.0842 0.14926,0.13507 1.71633,-0.57816 1.98916,-0.90531 0.158,-0.18952 3.41897,-2.07001 3.58955,-2.07001 0.0817,0 1.07173,-0.57882 2.19988,-1.28642 1.12816,-0.70752 2.66281,-1.61663 3.41028,-2.02018 0.74747,-0.403537 2.0647,-1.176353 2.92718,-1.717192 1.75425,-1.100049 6.50148,-3.94046 7.94519,-4.753745 0.51749,-0.291564 1.31723,-0.785229 1.77722,-1.097318 0.45998,-0.312089 1.03757,-0.630385 1.2835,-0.707269 0.24593,-0.07697 0.69284,-0.367704 0.99316,-0.646026 0.30029,-0.278323 0.54714,-0.439705 0.54923,-0.359014 0.003,0.0811 0.0723,0.05297 0.15682,-0.06207 0.0845,-0.114955 0.48294,-0.388478 0.88535,-0.607627 4.21367,-2.294941 11.62339,-6.785843 11.56416,-7.008799 -0.022,-0.08276 0.16139,-0.143175 0.40754,-0.134816 0.27605,0.0091 0.55089,-0.185135 0.71668,-0.507569 0.14784,-0.287509 0.26948,-0.404118 0.27157,-0.258874 0.003,0.235122 1.57866,-0.587598 1.88503,-0.984185 0.0575,-0.07448 0.76315,-0.453278 1.56813,-0.841671 0.80497,-0.388395 2.35742,-1.290067 3.44989,-2.003461 1.09247,-0.71331 2.45673,-1.546871 3.03172,-1.852753 1.54991,-0.824457 3.28985,-1.842409 3.98566,-2.33177 0.94841,-0.666965 4.79535,-2.808717 5.04498,-2.808717 0.12221,0 0.34103,-0.142679 0.48595,-0.317303 0.14491,-0.174624 0.60124,-0.477941 1.01397,-0.673834 0.41272,-0.195894 2.51788,-1.417021 4.67826,-2.714039 2.16037,-1.296936 3.97277,-2.358253 4.02774,-2.358253 0.055,0 0.53444,-0.331869 1.06543,-0.737146 0.53099,-0.405276 1.3553,-0.923769 1.83153,-1.152436 1.19985,-0.576094 5.03208,-2.943617 5.11765,-3.161524 0.0386,-0.09824 0.15303,-0.127203 0.25442,-0.06455 0.10141,0.06289 1.10469,-0.469169 2.22969,-1.181817 1.125,-0.712648 2.23369,-1.399145 2.46369,-1.525271 1.07929,-0.591819 5.23894,-3.141827 5.33164,-3.268533 0.0576,-0.07862 0.30401,-0.204997 0.54762,-0.280971 0.2436,-0.07614 1.51378,-0.804181 2.82263,-1.617963 1.30885,-0.813864 3.08521,-1.85896 3.94766,-2.322832 0.86252,-0.463788 2.03863,-1.14896 2.61357,-1.522375 1.38797,-0.901424 3.88758,-2.400377 4.00245,-2.400377 0.0505,0 0.58007,-0.329303 1.17768,-0.731767 0.59769,-0.402463 1.20556,-0.731848 1.35089,-0.731848 0.85459,0 -0.2174,-0.968295 -2.44573,-2.208789 -0.4263,-0.237356 -1.04948,-0.626164 -1.38474,-0.8641 -0.33527,-0.237936 -0.939,-0.619874 -1.34146,-0.848623 -0.40255,-0.22875 -1.75543,-1.039551 -3.00644,-1.801691 -1.25099,-0.762222 -2.30421,-1.385655 -2.34079,-1.385655 -0.0364,0 -0.78994,-0.463126 -1.67391,-1.029454 -0.9726,-0.623102 -1.46082,-0.900928 -1.92825,-0.871051 z"
         id="path7"
         style="fill:#53d6c2;fill-opacity:1;stroke-width:0.209084" />
      <path
         style="fill:#671bc6;fill-opacity:1;stroke-width:0.209084"
         d="m 163.39657,284.31165 c 0.0645,-0.10428 -0.1109,-0.18953 -0.38967,-0.18953 -0.27876,0 -0.73125,-0.17552 -1.00548,-0.38996 -0.27427,-0.21452 -1.06318,-0.68823 -1.75315,-1.05271 -0.68999,-0.36448 -1.34861,-0.78407 -1.4636,-0.93238 -0.11499,-0.14838 -0.53228,-0.38152 -0.9273,-0.51808 -0.39503,-0.13664 -0.86546,-0.37465 -1.04543,-0.529 -0.17995,-0.15427 -0.84467,-0.55002 -1.47716,-0.87941 -0.63247,-0.32939 -1.69761,-0.95464 -2.36698,-1.38946 -0.66935,-0.43483 -1.26497,-0.79061 -1.3236,-0.79061 -0.14096,0 -2.44754,-1.5136 -2.58194,-1.69427 -0.0576,-0.077 -0.43385,-0.289 -0.83633,-0.47041 -0.4025,-0.1814 -1.10815,-0.56451 -1.56814,-0.85135 -0.45998,-0.28693 -1.16565,-0.6879 -1.56813,-0.89125 -0.40249,-0.20334 -1.20009,-0.67755 -1.77245,-1.05387 -0.57237,-0.3763 -1.16595,-0.68418 -1.31911,-0.68418 -0.15316,0 -0.22895,-0.0803 -0.16844,-0.17801 0.0605,-0.0979 -0.24108,-0.28321 -0.67019,-0.41182 -0.42915,-0.12852 -1.10297,-0.47182 -1.49739,-0.7628 -0.39441,-0.29098 -0.79509,-0.52908 -0.8904,-0.52908 -0.0953,0 -0.8768,-0.46586 -1.73659,-1.03525 -0.85982,-0.5694 -1.56475,-0.9693 -1.5665,-0.8886 -0.003,0.0803 -0.0724,0.0422 -0.15682,-0.0853 -0.22234,-0.33551 -2.17598,-1.33625 -2.60868,-1.33625 -0.20216,0 -0.36756,-0.0875 -0.36756,-0.19432 0,-0.21766 -1.79193,-1.47834 -2.10132,-1.47834 -0.10925,0 -0.19862,-0.0828 -0.19862,-0.18374 0,-0.10104 -0.30578,-0.30563 -0.67952,-0.45468 -0.37373,-0.14897 -1.14996,-0.56161 -1.72494,-0.91698 -0.57498,-0.35529 -1.27002,-0.77116 -1.54451,-0.92402 -0.27451,-0.15294 -0.83903,-0.47571 -1.2545,-0.7172 -0.41549,-0.24158 -1.14695,-0.64379 -1.62549,-0.89389 -0.47853,-0.2501 -1.32532,-0.76264 -1.88175,-1.13886 -0.55644,-0.37632 -1.52918,-0.96408 -2.16166,-1.30604 -0.63249,-0.34205 -1.19701,-0.68162 -1.25451,-0.75453 -0.0576,-0.0728 -0.57498,-0.3735 -1.14996,-0.66796 -2.072,-1.06115 -3.76554,-1.9759 -3.86806,-2.0892 -0.0576,-0.0637 -0.4809,-0.34088 -0.94087,-0.61623 -0.46,-0.27535 -0.88339,-0.55673 -0.94089,-0.62533 -0.1818,-0.21676 -4.33967,-2.51095 -4.55078,-2.51095 -0.11096,0 -0.46609,-0.2117 -0.78917,-0.47041 -0.59986,-0.48042 -2.09648,-1.37556 -3.9643,-2.37108 -0.57497,-0.30639 -1.07677,-0.63924 -1.1151,-0.73955 -0.0383,-0.10039 -0.25004,-0.18249 -0.47044,-0.18249 -0.220418,0 -0.400753,-0.0923 -0.400753,-0.20507 0,-0.1128 -0.235221,-0.26418 -0.522713,-0.33626 -0.287493,-0.072 -0.522706,-0.19358 -0.522706,-0.26972 0,-0.0761 -0.423401,-0.36985 -0.940884,-0.65247 -0.517484,-0.28271 -0.940877,-0.58653 -0.940877,-0.67516 0,-0.0887 -0.181469,-0.16122 -0.403241,-0.16122 -0.221772,0 -0.527564,-0.11885 -0.67952,-0.26409 -0.424634,-0.40585 -1.423236,-1.02333 -2.57621,-1.59306 -0.574985,-0.2841 -1.56291,-0.8602 -2.195389,-1.28013 -0.632479,-0.42 -1.965349,-1.19762 -2.961948,-1.72811 -0.996583,-0.5305 -2.266762,-1.28527 -2.822638,-1.6773 -0.55585,-0.39204 -1.434044,-0.93429 -1.951527,-1.20491 -1.315872,-0.68832 -3.313712,-1.83736 -4.181685,-2.40518 -1.079243,-0.70586 -2.977946,-1.77074 -3.397614,-1.90547 -0.201248,-0.0646 -0.3659,-0.20053 -0.3659,-0.30208 0,-0.10163 -0.129611,-0.18472 -0.288031,-0.18472 -0.15841,0 -0.413387,-0.15104 -0.566609,-0.33567 -0.153223,-0.18464 -0.752796,-0.56261 -1.332374,-0.83993 -2.010255,-0.96185 -3.600584,-1.88181 -4.176993,-2.41628 -0.318659,-0.29553 -0.943483,-0.65745 -1.388484,-0.80426 -0.44501,-0.1469 -0.976207,-0.42042 -1.180434,-0.60779 -0.427018,-0.39187 -3.93698,-2.52311 -4.15531,-2.52311 -0.07995,0 -0.630269,-0.32186 -1.222965,-0.7153 -0.592695,-0.39336 -1.449222,-0.88735 -1.903394,-1.09765 -0.454172,-0.21038 -0.872814,-0.42945 -0.930316,-0.48696 -0.324735,-0.32475 -1.598787,-1.11685 -3.050104,-1.89637 -0.909858,-0.48862 -2.134461,-1.20275 -2.721347,-1.58692 -0.586887,-0.38409 -1.164867,-0.69842 -1.284406,-0.69842 -0.11954,0 -0.276676,-0.1546 -0.349183,-0.34354 -0.0725,-0.18894 -0.185523,-0.28982 -0.251152,-0.22419 -0.116352,0.11636 -1.54088,-0.60267 -2.588931,-1.30679 -0.287492,-0.19308 -0.852016,-0.51154 -1.254504,-0.70768 -0.790741,-0.38525 -1.505533,-0.80252 -1.672675,-0.97649 -0.05752,-0.0596 -0.339765,-0.22114 -0.627249,-0.35844 -1.774106,-0.84729 -3.771724,-2.22021 -3.539217,-2.43249 0.04916,-0.0447 1.406552,-0.85822 3.016503,-1.80748 1.609952,-0.94926 3.166995,-1.89033 3.460107,-2.09118 0.293112,-0.20094 1.045816,-0.62377 1.672675,-0.93966 0.62686,-0.3159 1.421614,-0.77398 1.766121,-1.01804 0.344505,-0.24397 0.956079,-0.61971 1.359047,-0.83496 1.640714,-0.87643 2.628739,-1.44127 2.881976,-1.64751 0.188164,-0.15327 0.436312,-0.13573 0.836334,0.0596 0.693697,0.33808 0.669166,0.3279 1.248315,0.51634 0.258741,0.0842 0.470441,0.23621 0.470441,0.33775 0,0.10163 0.127393,0.18472 0.283098,0.18472 0.155697,0 0.5369,0.2352 0.847109,0.52272 0.310202,0.2875 0.705846,0.5227 0.879204,0.5227 0.173358,0 0.263253,0.0841 0.199758,0.18679 -0.06348,0.10271 0.137871,0.25036 0.447477,0.32807 0.309606,0.0778 1.320398,0.63858 2.246212,1.24629 0.925815,0.60779 1.847945,1.16286 2.049193,1.23354 0.201241,0.0703 0.3659,0.22552 0.3659,0.34411 0,0.1186 0.136985,0.21568 0.304417,0.21568 0.167441,0 0.765689,0.27195 1.329453,0.60431 0.56377,0.33245 1.438223,0.80063 1.943235,1.04038 0.505011,0.23976 1.515696,0.81461 2.245972,1.27733 0.730276,0.46279 1.374706,0.8415 1.432075,0.8415 0.05735,0 0.635971,0.32144 1.28578,0.71431 0.649817,0.39286 2.404624,1.43894 3.899572,2.32465 1.494956,0.88562 2.749461,1.69319 2.787786,1.79466 0.03832,0.10138 0.141545,0.18438 0.229387,0.18438 0.08782,0 1.373679,0.67491 2.857472,1.49979 1.483808,0.82479 2.908774,1.60107 3.166621,1.72489 0.25784,0.12388 0.469541,0.27848 0.470435,0.34353 0,0.0654 0.566163,0.38823 1.256134,0.71803 0.689981,0.32979 1.254513,0.67342 1.254513,0.76363 0,0.0903 0.141132,0.10999 0.313621,0.0438 0.172496,-0.0662 0.313628,-0.0166 0.313628,0.11107 0,0.12728 0.09802,0.23148 0.217824,0.23148 0.119804,0 0.403969,0.17338 0.631478,0.38533 0.455529,0.42439 4.001681,2.54744 4.168716,2.4958 0.05752,-0.0174 0.518534,0.26756 1.024514,0.6341 0.506004,0.36655 1.00101,0.66648 1.100058,0.66648 0.09904,0 0.731435,0.3763 1.405318,0.83629 0.673876,0.45998 1.331422,0.83638 1.461223,0.83638 0.129801,0 0.235991,0.0941 0.235991,0.20904 0,0.11504 0.17548,0.20906 0.38997,0.20906 0.21449,0 0.6292,0.18819 0.9216,0.41819 0.29238,0.22999 0.63438,0.41819 0.75998,0.41819 0.12562,0 0.22838,0.0941 0.22838,0.20904 0,0.11504 0.11761,0.21079 0.26136,0.21295 0.21744,0 1.51575,0.77571 2.3588,1.4037 0.11861,0.0883 0.82427,0.4829 1.56813,0.87684 0.74384,0.39393 1.64359,0.93494 1.99943,1.20226 0.35584,0.26723 0.72204,0.48596 0.81374,0.48596 0.0917,0 0.78749,0.39204 1.54617,0.87122 0.75868,0.4791 1.49805,0.87113 1.643,0.87113 0.14496,0 0.26358,0.072 0.26358,0.15908 0,0.0875 0.49396,0.39947 1.09769,0.69336 1.52707,0.74326 2.32349,1.22841 2.5194,1.53462 0.092,0.14376 0.25521,0.26136 0.36277,0.26136 0.42897,0 2.28656,1.3043 2.15672,1.51443 -0.0796,0.1286 -0.0392,0.16196 0.0953,0.0786 0.29563,-0.18266 2.73833,1.03757 2.8952,1.44631 0.0645,0.16826 0.21294,0.30581 0.32982,0.30581 0.11689,0 0.90991,0.4234 1.76227,0.94089 0.85238,0.51751 1.60003,0.94091 1.66148,0.94091 0.0615,0 0.55208,0.30398 1.09027,0.67549 0.53821,0.3715 1.54309,0.97293 2.23307,1.33641 2.33443,1.2299 3.03312,1.68044 2.87535,1.85432 -0.0865,0.0954 -0.0403,0.10602 0.10287,0.024 0.14504,-0.0834 0.56133,0.072 0.94087,0.35124 0.37443,0.27551 1.01007,0.62641 1.41255,0.77985 0.40249,0.15344 1.01366,0.4743 1.35817,0.71298 0.95368,0.66067 1.95018,1.16567 2.30006,1.16567 0.17291,0 0.31437,0.0786 0.31437,0.17388 0,0.18762 1.48087,1.1829 2.80572,1.88569 0.45069,0.23902 0.87414,0.50856 0.94102,0.59886 0.11781,0.15907 0.91766,0.62079 2.21217,1.27707 0.34498,0.17488 0.67429,0.37772 0.73179,0.4508 0.0575,0.0728 0.43385,0.26326 0.83634,0.42265 0.40248,0.15948 0.77883,0.35041 0.83633,0.42432 0.0576,0.0737 0.71612,0.48563 1.4636,0.91491 2.14412,1.23122 2.76463,1.60414 3.65896,2.19911 0.45999,0.30596 1.23513,0.74054 1.72255,0.96573 0.48741,0.22519 0.88728,0.48 0.8886,0.56624 0.003,0.0862 0.12002,0.15998 0.26376,0.16378 0.14375,0 0.63771,0.27973 1.09769,0.61317 0.46,0.33353 1.35382,0.86046 1.98631,1.17114 0.63247,0.31069 1.197,0.6332 1.2545,0.71671 0.0575,0.0834 0.39672,0.30141 0.75382,0.48431 0.35709,0.1829 1.20387,0.69369 1.88175,1.13514 0.67787,0.44144 1.5008,0.91889 1.82876,1.0609 0.47522,0.20583 0.54742,0.31714 0.35573,0.54813 -0.17312,0.20855 -0.17623,0.32946 -0.0111,0.43151 0.15966,0.0986 0.1633,0.22146 0.0119,0.40379 -0.11959,0.14408 -0.14768,0.33178 -0.0624,0.41719 0.20851,0.2088 0.19949,13.91919 -0.009,13.91936 -0.0902,8e-5 -0.0666,0.18257 0.0528,0.40561 0.15308,0.28602 0.14867,0.44765 -0.0151,0.54887 -0.16694,0.10312 -0.16215,0.18645 0.0171,0.29727 0.16676,0.10304 0.10493,0.19159 -0.18704,0.26798 -0.23988,0.0629 -0.38341,0.029 -0.31898,-0.0753 z"
         id="path1" />
    </g>
  </g>
</svg>
